<svg xmlns="http://www.w3.org/2000/svg" width="32" height="32"><g transform="translate(-11.701 -794.304)"><circle cx="27.701" cy="810.304" r="16" fill="#5dc560" fill-rule="evenodd"/><g stroke="#373748" stroke-linecap="round" stroke-linejoin="round" stroke-width=".555" color="#000" transform="matrix(1.11294 0 0 1.10182 -673.59 -917.773)"><path style="isolation:auto;mix-blend-mode:normal" fill="#8d5fd3" d="M630.124 1559.737c-3.324 0-6.1 2.23-6.1 5v5c0 .154.01.305.027.456-.006.046-.027.087-.027.134v5.625c0 .604.601 1.09 1.225 1.09.623 0 1.225-.486 1.225-1.09v-2.334c0-1.716 2.425-1.614 2.425-.07v2.404c0 .604.601 1.09 1.225 1.09.623 0 1.225-.486 1.225-1.09v-2.405c0-1.664 2.425-1.73 2.425.071v2.334c0 .604.601 1.09 1.225 1.09.623 0 1.224-.486 1.224-1.09v-5.625c0-.048-.021-.089-.027-.134a4.23 4.23 0 0 0 .027-.456v-5c0-2.77-2.775-5-6.1-5z" overflow="visible"/><circle style="isolation:auto;mix-blend-mode:normal" cx="627.737" cy="1565.451" r="1.214" fill="#ffd42a" overflow="visible"/><circle cx="632.31" cy="1565.451" r="1.214" fill="#ffd42a" style="isolation:auto;mix-blend-mode:normal" overflow="visible"/></g></g></svg>