<?xml version="1.0" encoding="utf-8"?>
<svg xmlns="http://www.w3.org/2000/svg" xmlns:xlink="http://www.w3.org/1999/xlink" version="1.1" id="Layer_2" x="0px" y="0px" viewBox="0 0 1024 1024" enable-background="new 0 0 1024 1024" xml:space="preserve">
<path d="M852.439,504h-66.965c0.009,0,0.017-0.013,0.027,0h-41.738c-3.21-3-6.89-5.495-11.125-8.146  c-2.659-1.664-5.52-3.294-8.555-4.873c-1.623-11.333-8.517-25.404-29.359-36.889c-11.546-6.363-27.205-11.877-46.544-16.385  c-15.794-3.681-33.766-6.643-53.181-8.82V96h-0.477c0-14.907-10.126-28.015-28.512-36.908c-14.92-7.216-34.424-11.19-54.919-11.19  s-39.999,3.975-54.919,11.19C437.788,67.985,427.662,81.093,427.662,96H427v333.375c-17.804,2.124-34.324,4.916-48.97,8.329  c-19.339,4.508-34.998,10.019-46.544,16.382c-20.841,11.485-27.736,25.552-29.359,36.884c-3.035,1.579-5.896,3.219-8.555,4.883  c-4.234,2.65-7.915,5.145-11.124,8.145h-0.509c0.017-0.013,0.033,0,0.049,0H169.771C132.401,504,102,534.362,102,571.733v296.653  C102,905.758,132.401,936,169.771,936h682.668C889.81,936,920,905.758,920,868.387V571.733C920,534.362,889.81,504,852.439,504z   M852.439,534C873.268,534,890,550.904,890,571.733v121.939C890,714.502,873.268,731,852.439,731H169.771  C148.943,731,132,714.502,132,693.673V571.733C132,550.904,148.943,534,169.771,534h93.464c-0.804,4-1.113,6.988-1.113,10.054  c0,1.717,0.099,3.53,0.324,5.433c-3.463,1.934-6.706,3.908-9.694,5.937c-18.62,12.642-28.061,27.097-28.061,42.969  c0,4.756,0.859,9.399,2.568,13.912c-19.504,4.762-34.275,9.387-45.617,14.246c-8.645,3.703-34.951,14.974-34.951,38.416  c0,12.137,7.102,29.21,40.934,41.617c21.666,7.945,50.163,12.321,80.241,12.321c55.379,0,95.398-8.777,146.055-32.237  c31.674,3.476,65.019,5.237,99.185,5.237c74.394,0,144.524-8.374,197.474-23.579c26.638-7.649,47.794-16.721,62.88-26.964  c18.62-12.642,28.061-27.1,28.061-42.972s-9.44-30.33-28.061-42.972c-2.988-2.029-6.231-4.008-9.694-5.942  c0.225-1.904,0.324-3.706,0.324-5.423c0-3.066-0.31-6.054-1.113-10.054H852.439z M511.093,77.901  c35.06,0,53.431,13.447,53.431,18.099s-18.371,18.099-53.431,18.099S457.662,100.651,457.662,96S476.033,77.901,511.093,77.901z   M457,133.289c14.789,6.959,33.91,10.796,54,10.808v341.615c-39.763-0.025-51.321-15.687-54-20.701V133.289z M427,459.599v10.459  l0.555,1.982c0.591,2.114,4.185,13.198,16.892,23.823c15.751,13.171,38.175,19.85,66.646,19.85c29.065,0,51.66-6.713,67.157-19.952  c12.669-10.822,15.845-22.169,16.354-24.334l0.396-1.691v-10.65c59.033,6.974,99.5,21.251,99.5,37.733  c0,23.352-81.213,42.282-181.394,42.282s-181.394-18.93-181.394-42.282C331.711,480.732,370.261,466.745,427,459.599z   M309.682,521.155c4.534,6.335,11.439,12.685,21.804,18.397c11.546,6.363,27.205,11.875,46.544,16.382  c36.428,8.491,84.398,13.167,135.075,13.167s98.648-4.676,135.075-13.167c19.338-4.508,34.998-10.019,46.544-16.382  c10.365-5.712,17.271-12.062,21.804-18.397c11.299,7.028,17.561,14.759,17.561,22.879c0,32.307-98.938,58.497-220.984,58.497  c-122.046,0-220.984-26.19-220.984-58.497C292.122,535.914,298.383,528.182,309.682,521.155z M293.572,592.234  c13.684,8.564,32.39,16.022,55.597,22.165c44.172,11.693,102.392,18.132,163.936,18.132s119.764-6.439,163.936-18.132  c23.207-6.143,41.913-13.601,55.597-22.165c7.958-4.98,13.983-10.209,18.524-15.441c15.293,8.979,20.357,16.959,20.357,21.598  c0,7.883-14.579,25.41-69.221,41.102c-50.333,14.453-117.522,22.413-189.193,22.413c-34.554,0-68.197-1.856-99.996-5.518  c-2.782-0.324-5.597,0.144-8.127,1.341c-48.076,22.727-85.238,31.177-137.116,31.177c-25.521,0-49.613-3.463-67.841-9.751  c-17.914-6.18-22.937-12.707-23.318-14.119c0.327-0.679,3.221-5.604,20.074-12.277c3.287-1.301,6.898-2.592,10.866-3.884  c4.577,13.383,33.597,23.703,68.853,23.703c38.446,0,69.5-12.269,69.5-27.404v-13c0-15.135-31.054-27.404-69.5-27.404  c-6.53,0-12.838,0.362-18.825,1.023c-1.719-2.336-2.984-4.901-2.984-7.402c0-4.639,5.064-12.619,20.357-21.598  C279.59,582.025,285.615,587.254,293.572,592.234z M852.439,906h-8.337C852.71,897,858,885.209,858,871.815V784.8  c-2,0.128-3.758,0.2-5.774,0.2H169.774c-0.227,0-0.774-0.007-0.774-0.009v86.824c0,13.394,5.367,25.185,14.053,34.185h-13.281  C148.943,906,132,889.216,132,868.387V749.61c11,7.199,23.797,11.39,37.771,11.39h682.668c14.003,0,26.561-4.207,37.561-11.433  v118.819C890,889.216,873.268,906,852.439,906z"/>

	<metadata>
		<rdf:RDF xmlns:rdf="http://www.w3.org/1999/02/22-rdf-syntax-ns#" xmlns:rdfs="http://www.w3.org/2000/01/rdf-schema#" xmlns:dc="http://purl.org/dc/elements/1.1/">
			<rdf:Description about="https://iconscout.com/legal#licenses" dc:title="videogame_icons-06" dc:description="videogame_icons-06" dc:publisher="Iconscout" dc:date="2017-02-13" dc:format="image/svg+xml" dc:language="en">
				<dc:creator>
					<rdf:Bag>
						<rdf:li>Guilherme Simoes</rdf:li>
					</rdf:Bag>
				</dc:creator>
			</rdf:Description>
		</rdf:RDF>
    </metadata></svg>
