<?xml version="1.0" encoding="utf-8"?>
<svg xmlns="http://www.w3.org/2000/svg" xmlns:xlink="http://www.w3.org/1999/xlink" version="1.1" id="Layer_2" x="0px" y="0px" viewBox="0 0 1024 1024" enable-background="new 0 0 1024 1024" xml:space="preserve">
<g>
	<path d="M938.154,363.125c-23.895-41.116-54.927-65.663-83.005-65.663l-686.259-0.202c-28.417,0-58.166,24.049-81.617,65.979   c-23.563,42.129-36.54,94.665-36.54,147.93c0,69.603,25.376,122.707,40.503,148.168c18.822,31.681,49.004,65.533,77.264,65.537   l686.645,0.202c28.371,0,59.332-33.796,78.847-65.424c15.812-25.629,42.341-78.998,42.341-148.483   C976.332,458.062,962.773,405.486,938.154,363.125z M908.46,643.898c-21.78,35.299-44.289,51.24-53.311,51.24L168.509,695h-0.004   c-8.828,0-30.634-15.843-51.477-50.925c-13.555-22.814-36.294-70.442-36.294-132.875c0-47.523,11.927-96.119,32.723-133.301   c20.899-37.365,42.924-50.631,55.43-50.631l686.258,0.198c19.056,0,42.396,25.48,57.072,50.734   c21.681,37.307,34.115,85.771,34.115,132.969C946.332,573.249,922.604,620.975,908.46,643.898z"/>
	<path d="M746,366.461c0-9.091-7.37-16.461-16.461-16.461H295.461C286.37,350,279,357.37,279,366.461v290.077   c0,9.091,7.37,16.461,16.461,16.461h434.077c9.091,0,16.461-7.37,16.461-16.461V366.461z"/>
	<path d="M877.388,492.054c3.081-1.449,6.518-2.263,10.143-2.263c0.327,0,0.651,0.012,0.975,0.025   c-4.904-11.047-13.485-20.105-24.186-25.619c0.087,0.827,0.133,1.666,0.133,2.516c0,3.249-0.654,6.348-1.833,9.175   C868.86,479.865,873.977,485.448,877.388,492.054z"/>
	<path d="M860.572,547.675c2.007,3.075,3.329,6.636,3.74,10.467c9.022-4.647,16.536-11.813,21.614-20.568   c-3.936-0.262-7.616-1.474-10.806-3.418C871.429,539.743,866.435,544.393,860.572,547.675z"/>
	<path d="M805.479,534.423c-3.25,1.882-6.978,3.023-10.957,3.186c5.19,8.934,12.918,16.213,22.197,20.843   c0.362-3.839,1.635-7.413,3.6-10.511C814.347,544.697,809.252,540.04,805.479,534.423z"/>
	<path d="M803.159,491.822c3.504-6.684,8.757-12.309,15.154-16.259c-1.095-2.74-1.704-5.725-1.704-8.851   c0-0.969,0.065-1.924,0.177-2.863c-11.029,5.483-19.876,14.707-24.881,26.004c0.537-0.036,1.078-0.061,1.624-0.061   C796.955,489.791,800.211,490.52,803.159,491.822z"/>
	<path d="M840.53,448.791c-9.882,0-17.921,8.039-17.921,17.921s8.039,17.922,17.921,17.922s17.922-8.04,17.922-17.922   S850.412,448.791,840.53,448.791z"/>
	<path d="M840.53,542.791c-9.882,0-17.921,8.039-17.921,17.921s8.039,17.922,17.921,17.922s17.922-8.04,17.922-17.922   S850.412,542.791,840.53,542.791z"/>
	<path d="M887.53,495.791c-9.882,0-17.921,8.039-17.921,17.921s8.039,17.922,17.921,17.922s17.922-8.04,17.922-17.922   S897.412,495.791,887.53,495.791z"/>
	<path d="M811.452,513.712c0-9.882-8.04-17.921-17.922-17.921s-17.921,8.039-17.921,17.921s8.039,17.922,17.921,17.922   S811.452,523.594,811.452,513.712z"/>
	<path d="M181.214,437.286c-40.738,0-73.881,33.144-73.881,73.882s33.143,73.881,73.881,73.881s73.881-33.143,73.881-73.881   S221.952,437.286,181.214,437.286z M196.823,520.49l12.173,11.216c2.181,1.972,5.199,3.294,8.355,3.294h20.685   c0.538,0,1.01-0.278,1.528-0.339c-6.69,16.737-20.416,29.713-37.461,35.77c0-0.026-0.104-0.052-0.104-0.079V549.68   c0-3.151-1.005-6.166-2.973-8.346l-10.943-12.185c-3.863-4.281-9.93-4.285-13.798-0.01l-11.104,12.173   c-1.973,2.181-3.182,5.199-3.182,8.355v20.685c0,0.027,0.11,0.052,0.11,0.079c-17.045-6.057-30.664-19.033-37.354-35.77   c0.519,0.062,1.097,0.339,1.635,0.339h20.672c3.151,0,6.166-1.347,8.346-3.315l12.185-11.114   c4.281-3.863,4.285-10.016,0.009-13.883l-12.173-10.805c-2.181-1.973-5.199-2.883-8.355-2.883h-20.685   c-1.17,0-2.298-0.082-3.363,0.198c5.902-19.474,20.908-35.087,40.14-41.536c-0.674,1.556-1.169,3.188-1.169,5.047v20.672   c0,3.151,1.219,6.166,3.187,8.346l11.05,12.185c3.863,4.281,9.984,4.285,13.852,0.01l10.917-12.173   c1.973-2.181,2.995-5.199,2.995-8.355v-20.685c0-1.858-0.281-3.608-0.955-5.164c19.232,6.449,34.398,22.179,40.3,41.653   c-1.064-0.28-2.139-0.198-3.309-0.198h-20.672c-3.151,0-6.166,0.878-8.346,2.845l-12.185,10.879   C192.551,510.587,192.547,516.623,196.823,520.49z"/>
</g>

	<metadata>
		<rdf:RDF xmlns:rdf="http://www.w3.org/1999/02/22-rdf-syntax-ns#" xmlns:rdfs="http://www.w3.org/2000/01/rdf-schema#" xmlns:dc="http://purl.org/dc/elements/1.1/">
			<rdf:Description about="https://iconscout.com/legal#licenses" dc:title="videogame_icons-09" dc:description="videogame_icons-09" dc:publisher="Iconscout" dc:date="2017-02-13" dc:format="image/svg+xml" dc:language="en">
				<dc:creator>
					<rdf:Bag>
						<rdf:li>Guilherme Simoes</rdf:li>
					</rdf:Bag>
				</dc:creator>
			</rdf:Description>
		</rdf:RDF>
    </metadata></svg>
