<?xml version="1.0" encoding="utf-8"?>
<svg xmlns="http://www.w3.org/2000/svg" xmlns:xlink="http://www.w3.org/1999/xlink" version="1.1" id="Layer_2" x="0px" y="0px" viewBox="0 0 1024 1024" enable-background="new 0 0 1024 1024" xml:space="preserve">
<g>
	<path d="M928.739,376H527V119h-32v257H97.413C71.078,376,50,397.405,50,423.741v394.671C50,844.747,71.078,866,97.413,866h831.326   C955.074,866,976,844.747,976,818.412V423.741C976,397.405,955.074,376,928.739,376z M946,423.741V465H497.478   C486.449,465,477,455.62,477,444.592V406h451.739C938.532,406,946,413.947,946,423.741z M457,797.561V836H138V406h319v38.592   C457,466.648,475.422,485,497.478,485H946v273H497.478C475.422,758,457,775.505,457,797.561z M80,818.412V423.741   C80,413.947,87.62,406,97.413,406H118v430H97.413C87.62,836,80,828.205,80,818.412z M928.739,836H477v-38.439   c0-11.028,9.449-19.561,20.478-19.561H946v40.412C946,828.205,938.532,836,928.739,836z"/>
	<path d="M719,539c0-11.046-8.954-20-20-20H559c-11.046,0-20,8.954-20,20v166c0,11.046,8.954,20,20,20h140c11.046,0,20-8.954,20-20   V539z M559,539h139.373l0.013,166c0,0-0.004,0-0.013,0H559V539z"/>
	<circle cx="628.617" cy="621.584" r="54.214"/>
	<path d="M915,539c0-11.046-8.954-20-20-20H755c-11.046,0-20,8.954-20,20v166c0,11.046,8.954,20,20,20h140c11.046,0,20-8.954,20-20   V539z M755,539h139.373l0.013,166c0,0-0.004,0-0.013,0H755V539z"/>
	<circle cx="824.617" cy="621.584" r="54.214"/>
	<path d="M398,487H228c-27.614,0-50,22.386-50,50v170c0,27.614,22.386,50,50,50h170c27.614,0,50-22.386,50-50V537   C448,509.386,425.614,487,398,487z M250,632h-34c-5.522,0-10-4.478-10-10s4.478-10,10-10h34c5.522,0,10,4.478,10,10   S255.522,632,250,632z M323,719c0,5.522-4.478,10-10,10s-10-4.478-10-10v-34c0-5.522,4.478-10,10-10s10,4.478,10,10V719z M323,559   c0,5.522-4.478,10-10,10s-10-4.478-10-10v-34c0-5.522,4.478-10,10-10s10,4.478,10,10V559z M410,632h-34c-5.522,0-10-4.478-10-10   s4.478-10,10-10h34c5.522,0,10,4.478,10,10S415.522,632,410,632z"/>
</g>

	<metadata>
		<rdf:RDF xmlns:rdf="http://www.w3.org/1999/02/22-rdf-syntax-ns#" xmlns:rdfs="http://www.w3.org/2000/01/rdf-schema#" xmlns:dc="http://purl.org/dc/elements/1.1/">
			<rdf:Description about="https://iconscout.com/legal#licenses" dc:title="videogame_icons-03" dc:description="videogame_icons-03" dc:publisher="Iconscout" dc:date="2017-02-13" dc:format="image/svg+xml" dc:language="en">
				<dc:creator>
					<rdf:Bag>
						<rdf:li>Guilherme Simoes</rdf:li>
					</rdf:Bag>
				</dc:creator>
			</rdf:Description>
		</rdf:RDF>
    </metadata></svg>
